<?xml version="1.0" standalone="no"?>
<!DOCTYPE svg PUBLIC "-//W3C//DTD SVG 20010904//EN"
 "http://www.w3.org/TR/2001/REC-SVG-20010904/DTD/svg10.dtd">
<svg version="1.0" xmlns="http://www.w3.org/2000/svg"
 width="424.000000pt" height="426.000000pt" viewBox="0 0 424.000000 426.000000"
 preserveAspectRatio="xMidYMid meet">

<g transform="translate(0.000000,426.000000) scale(0.100000,-0.100000)"
fill="#000000" stroke="none">
<path d="M458 3285 c-15 -9 -32 -24 -38 -35 -6 -11 -10 -104 -10 -229 l0 -210
26 -20 c33 -26 49 -26 74 -1 18 18 20 33 20 130 0 61 3 110 8 110 4 0 22 -50
41 -110 38 -122 63 -157 105 -146 31 8 36 17 82 148 20 57 40 107 44 112 5 4
9 -45 9 -110 1 -108 3 -121 22 -136 26 -22 38 -22 67 -2 22 15 22 19 22 238 0
218 0 223 -22 243 -34 31 -63 36 -97 19 -30 -16 -48 -54 -111 -238 -13 -38
-26 -68 -29 -68 -3 0 -28 63 -54 139 -27 77 -56 146 -65 154 -26 24 -64 28
-94 12z"/>
<path d="M1167 3286 c-92 -34 -156 -107 -177 -200 -23 -103 26 -216 120 -276
135 -86 312 -29 381 124 37 82 18 199 -45 272 -65 76 -193 112 -279 80z m143
-124 c102 -51 106 -192 8 -252 -92 -56 -211 14 -211 124 0 56 26 102 71 125
46 25 87 26 132 3z"/>
<path d="M1520 3280 c-11 -11 -20 -28 -20 -37 0 -33 144 -437 162 -455 23 -23
50 -23 76 0 11 10 50 105 96 236 70 203 75 221 61 242 -8 12 -24 25 -35 29
-42 13 -63 -16 -108 -154 -24 -72 -47 -131 -50 -131 -4 0 -27 58 -50 130 -52
156 -83 189 -132 140z"/>
<path d="M1970 3280 c-19 -19 -20 -33 -20 -245 0 -212 1 -226 20 -245 26 -26
52 -25 78 3 21 22 22 31 22 244 l0 222 -26 20 c-33 26 -49 26 -74 1z"/>
<path d="M2917 3278 c-26 -25 -187 -416 -187 -455 0 -23 34 -53 60 -53 21 0
56 37 69 73 10 26 12 27 91 27 81 0 81 0 98 -32 40 -73 78 -86 115 -37 l19 27
-86 218 c-102 257 -123 284 -179 232z m72 -290 c1 -5 -15 -8 -34 -8 -40 0 -41
3 -19 56 l17 39 18 -40 c9 -22 18 -43 18 -47z"/>
<path d="M3290 3289 c-66 -27 -108 -106 -95 -176 8 -45 67 -109 113 -124 64
-20 90 -57 60 -87 -19 -19 -42 -14 -68 13 -28 30 -70 33 -93 7 -70 -78 98
-191 202 -137 41 20 79 70 87 110 15 84 -22 147 -110 189 -60 28 -81 49 -72
71 11 29 37 29 62 1 33 -35 77 -35 101 0 16 25 16 28 -3 62 -10 19 -31 44 -45
55 -31 23 -103 31 -139 16z"/>
<path d="M3635 3293 c-63 -16 -105 -78 -105 -156 0 -65 31 -105 113 -145 65
-32 68 -35 65 -65 -4 -42 -35 -47 -76 -13 -52 45 -102 30 -102 -29 0 -42 25
-73 74 -96 115 -52 226 16 226 139 0 77 -24 111 -110 156 -72 38 -86 60 -55
86 13 11 20 9 43 -13 72 -69 155 14 87 87 -42 45 -102 63 -160 49z"/>
<path d="M2140 3271 c-6 -12 -10 -109 -10 -244 0 -197 2 -226 17 -238 11 -10
48 -14 130 -14 102 0 116 2 129 19 18 25 18 57 0 81 -11 16 -30 20 -91 23
l-76 4 3 37 3 36 78 5 c81 5 97 14 97 56 0 41 -21 53 -100 56 l-75 3 -3 36 -3
37 76 4 c83 4 105 18 105 64 0 46 -22 54 -150 54 -108 0 -120 -2 -130 -19z"/>
<path d="M2496 3274 c-14 -13 -16 -49 -16 -240 0 -211 1 -225 20 -244 25 -25
41 -25 71 -1 21 17 24 30 27 99 l4 80 50 4 c62 6 96 31 127 91 34 69 24 127
-34 184 l-42 43 -96 0 c-74 0 -99 -4 -111 -16z m174 -119 c22 -26 -3 -65 -40
-65 -28 0 -30 2 -30 40 0 37 2 40 29 40 16 0 34 -7 41 -15z"/>
<path d="M2094 2516 c-104 -25 -200 -106 -245 -207 -13 -27 -24 -49 -27 -49
-2 0 -18 12 -36 27 -53 45 -104 63 -181 63 -80 0 -131 -19 -190 -71 -42 -38
-81 -112 -91 -175 -9 -59 21 -154 63 -204 l34 -40 -23 -9 c-13 -5 -34 -21 -48
-36 l-25 -27 -3 -339 c-3 -373 -2 -383 58 -414 42 -22 412 -22 430 0 7 8 10
22 6 30 -4 13 -35 15 -199 15 -151 0 -197 3 -213 14 -18 14 -19 31 -22 328 -2
196 1 325 7 341 l11 27 523 0 c393 0 526 -3 535 -12 18 -18 17 -673 0 -685 -7
-4 -103 -10 -213 -13 l-200 -5 0 -25 0 -25 195 -3 c107 -1 204 0 216 2 11 3
33 17 47 32 21 21 27 37 29 82 3 56 3 57 33 56 18 -1 75 -29 139 -68 121 -73
153 -80 191 -41 l25 24 0 329 c0 299 -2 332 -17 351 -34 41 -70 37 -168 -19
-49 -28 -103 -60 -118 -71 -16 -12 -40 -19 -55 -17 -25 3 -27 7 -32 62 -4 47
-10 62 -33 82 -15 13 -42 26 -61 29 l-34 7 45 44 c125 126 138 333 29 477 -45
60 -140 121 -211 135 -71 15 -105 14 -171 -2z m198 -72 c60 -19 132 -83 166
-148 22 -43 27 -64 27 -131 0 -68 -4 -89 -28 -137 -51 -103 -137 -159 -258
-166 -67 -4 -83 -1 -138 23 -66 30 -116 78 -153 147 -33 62 -33 194 1 258 77
149 219 206 383 154z m-572 -188 c111 -74 133 -225 47 -323 -115 -131 -337
-74 -375 95 -22 98 33 204 128 247 53 23 150 14 200 -19z m200 -348 l43 -48
-88 0 -87 0 30 34 c17 19 33 44 37 56 4 12 10 18 14 14 5 -5 27 -30 51 -56z
m940 -467 c0 -187 -4 -312 -10 -316 -5 -3 -50 17 -100 45 l-90 51 0 217 0 217
83 47 c45 26 90 48 100 48 16 0 17 -21 17 -309z m-262 -4 l2 -178 -32 3 -33 3
-3 165 c-1 90 0 170 3 178 3 8 16 12 32 10 l28 -3 3 -178z"/>
<path d="M2085 2381 c-118 -54 -175 -193 -125 -310 83 -192 346 -202 443 -16
29 55 28 155 0 210 -27 51 -78 100 -125 119 -51 22 -143 20 -193 -3z m199 -71
c73 -51 101 -160 60 -231 -66 -112 -205 -131 -288 -39 -81 90 -64 213 38 276
54 33 136 30 190 -6z"/>
<path d="M2162 2263 c-13 -26 -4 -43 24 -43 19 0 24 5 24 24 0 13 -7 27 -16
30 -22 8 -22 8 -32 -11z"/>
<path d="M2074 2175 c-8 -21 2 -45 19 -45 20 0 40 27 33 45 -7 19 -45 20 -52
0z"/>
<path d="M2244 2176 c-10 -26 4 -48 28 -44 17 2 23 10 23 28 0 18 -6 26 -23
28 -13 2 -25 -3 -28 -12z"/>
<path d="M2162 2093 c-13 -26 -4 -43 24 -43 19 0 24 5 24 24 0 13 -7 27 -16
30 -22 8 -22 8 -32 -11z"/>
<path d="M1540 2198 c-166 -86 -48 -326 123 -250 59 26 94 88 83 146 -9 48
-59 103 -104 116 -50 13 -51 13 -102 -12z m120 -68 c42 -42 17 -120 -45 -136
-50 -12 -103 48 -89 102 13 52 95 73 134 34z"/>
<path d="M2232 1693 c-57 -28 -77 -90 -45 -144 38 -63 122 -72 168 -17 72 86
-23 211 -123 161z m82 -75 c16 -26 -4 -53 -40 -53 -23 0 -30 5 -32 23 -2 13
-1 30 2 38 8 20 56 14 70 -8z"/>
<path d="M1502 1518 c-8 -8 -12 -60 -12 -168 0 -108 4 -160 12 -168 17 -17
569 -17 586 0 13 13 18 301 6 332 -5 14 -41 16 -293 16 -210 0 -290 -3 -299
-12z m528 -168 l0 -120 -237 2 -238 3 -3 104 c-1 58 0 111 2 118 4 10 55 13
241 13 l235 0 0 -120z"/>
<path d="M2181 1396 c-8 -9 -11 -46 -9 -103 l3 -88 95 -3 c115 -3 120 0 120
104 0 97 -7 104 -114 104 -60 0 -87 -4 -95 -14z m139 -96 l0 -40 -40 0 -40 0
0 40 0 40 40 0 40 0 0 -40z"/>
<path d="M1904 1065 c-8 -21 2 -45 19 -45 21 0 38 25 31 44 -8 20 -43 21 -50
1z"/>
</g>
</svg>
